# 3ds Max Wavefront OBJ Exporter v0.97b - (c)2007 guruware
# File Created: 10.10.2020 18:33:42

mtllib largepanel.mtl

#
# object Box001
#

v  73.8562 0.0000 -69.0820
v  123.5203 0.0000 -69.0820
v  123.5203 0.0000 -66.6379
v  73.8562 0.0000 -66.6379
v  123.5203 41.1008 -66.6379
v  123.5203 41.1008 -69.0820
v  73.8562 41.1008 -69.0820
v  73.8562 41.1008 -66.6379
v  69.7066 2.9640 -66.6379
v  70.0623 1.8969 -66.6379
v  70.6551 1.0670 -66.6379
v  69.5881 36.8327 -66.6379
v  71.4850 0.4742 -66.6379
v  72.5520 0.1186 -66.6379
v  124.8244 0.1186 -66.6379
v  125.8915 0.4742 -66.6379
v  127.3142 1.8969 -66.6379
v  126.7214 1.0670 -66.6379
v  127.6698 2.9640 -66.6379
v  127.7884 4.2681 -66.6379
v  127.6698 38.1369 -66.6379
v  127.7884 36.8327 -66.6379
v  127.3142 39.2039 -66.6379
v  126.7214 40.0338 -66.6379
v  124.8244 40.9823 -66.6379
v  125.8915 40.6266 -66.6379
v  71.4850 40.6266 -66.6379
v  72.5520 40.9823 -66.6379
v  70.6551 40.0338 -66.6379
v  70.0623 39.2039 -66.6379
v  69.7066 38.1369 -66.6379
v  69.5881 4.2681 -66.6379
v  127.7884 4.2681 -69.0820
v  127.7884 36.8327 -69.0820
v  127.6698 2.9640 -69.0820
v  127.3142 1.8969 -69.0820
v  126.7214 1.0670 -69.0820
v  125.8915 0.4742 -69.0820
v  124.8244 0.1186 -69.0820
v  72.5520 0.1186 -69.0820
v  71.4850 0.4742 -69.0820
v  70.0623 1.8969 -69.0820
v  70.6551 1.0670 -69.0820
v  69.7066 2.9640 -69.0820
v  69.5881 4.2681 -69.0820
v  69.7066 38.1369 -69.0820
v  69.5881 36.8327 -69.0820
v  70.0623 39.2039 -69.0820
v  70.6551 40.0338 -69.0820
v  72.5520 40.9823 -69.0820
v  71.4850 40.6266 -69.0820
v  125.8915 40.6266 -69.0820
v  124.8244 40.9823 -69.0820
v  126.7214 40.0338 -69.0820
v  127.3142 39.2039 -69.0820
v  127.6698 38.1369 -69.0820
# 56 vertices

vn -0.0453 -0.9990 -0.0000
vn 0.0453 -0.9990 -0.0000
vn 0.0453 0.9990 -0.0000
vn -0.0453 0.9990 -0.0000
vn 0.0000 0.0000 1.0000
vn 0.9990 -0.0453 -0.0000
vn 0.9990 0.0453 -0.0000
vn 0.0000 0.0000 -1.0000
vn -0.9990 -0.0453 -0.0000
vn -0.9990 0.0453 -0.0000
vn -0.2047 -0.9788 -0.0000
vn 0.2047 -0.9788 -0.0000
vn 0.2047 0.9788 -0.0000
vn -0.2047 0.9788 -0.0000
vn -0.4538 -0.8911 -0.0000
vn -0.7071 -0.7071 -0.0000
vn -0.8911 -0.4538 -0.0000
vn -0.9788 -0.2047 -0.0000
vn 0.4538 -0.8911 -0.0000
vn 0.7071 -0.7071 -0.0000
vn 0.8911 -0.4538 -0.0000
vn 0.9788 -0.2047 -0.0000
vn 0.4538 0.8911 -0.0000
vn 0.7071 0.7071 -0.0000
vn 0.8911 0.4538 -0.0000
vn 0.9788 0.2047 -0.0000
vn -0.4538 0.8911 -0.0000
vn -0.7071 0.7071 -0.0000
vn -0.8911 0.4538 -0.0000
vn -0.9788 0.2047 -0.0000
# 30 vertex normals

o Box001
g Box001
usemtl box_wire_008008136
s 1
f 1//1 2//2 3//2 4//1 
f 5//3 6//3 7//4 8//4 
s 2
f 9//5 10//5 11//5 12//5 
f 11//5 13//5 14//5 3//5 
f 14//5 4//5 3//5 
f 3//5 15//5 16//5 17//5 
f 16//5 18//5 17//5 
f 17//5 19//5 20//5 21//5 
f 20//5 22//5 21//5 
f 3//5 17//5 21//5 12//5 
f 21//5 23//5 24//5 25//5 
f 24//5 26//5 25//5 
f 25//5 5//5 8//5 27//5 
f 8//5 28//5 27//5 
f 21//5 25//5 27//5 12//5 
f 27//5 29//5 30//5 12//5 
f 30//5 31//5 12//5 
f 11//5 3//5 12//5 
f 32//5 9//5 12//5 
s 1
f 33//6 34//7 22//7 20//6 
s 2
f 35//8 36//8 37//8 34//8 
f 37//8 38//8 39//8 1//8 
f 39//8 2//8 1//8 
f 1//8 40//8 41//8 42//8 
f 41//8 43//8 42//8 
f 42//8 44//8 45//8 46//8 
f 45//8 47//8 46//8 
f 1//8 42//8 46//8 34//8 
f 46//8 48//8 49//8 50//8 
f 49//8 51//8 50//8 
f 50//8 7//8 6//8 52//8 
f 6//8 53//8 52//8 
f 46//8 50//8 52//8 34//8 
f 52//8 54//8 55//8 34//8 
f 55//8 56//8 34//8 
f 37//8 1//8 34//8 
f 33//8 35//8 34//8 
s 1
f 32//9 12//10 47//10 45//9 
f 14//11 40//11 1//1 4//1 
f 39//12 15//12 3//2 2//2 
f 25//13 53//13 6//3 5//3 
f 50//14 28//14 8//4 7//4 
f 13//15 41//15 40//11 14//11 
f 11//16 43//16 41//15 13//15 
f 10//17 42//17 43//16 11//16 
f 9//18 44//18 42//17 10//17 
f 32//9 45//9 44//18 9//18 
f 38//19 16//19 15//12 39//12 
f 37//20 18//20 16//19 38//19 
f 36//21 17//21 18//20 37//20 
f 35//22 19//22 17//21 36//21 
f 33//6 20//6 19//22 35//22 
f 26//23 52//23 53//13 25//13 
f 24//24 54//24 52//23 26//23 
f 23//25 55//25 54//24 24//24 
f 21//26 56//26 55//25 23//25 
f 22//7 34//7 56//26 21//26 
f 51//27 27//27 28//14 50//14 
f 49//28 29//28 27//27 51//27 
f 48//29 30//29 29//28 49//28 
f 46//30 31//30 30//29 48//29 
f 47//10 12//10 31//30 46//30 
# 46 polygons - 16 triangles

