# 3ds Max Wavefront OBJ Exporter v0.97b - (c)2007 guruware
# File Created: 10.10.2020 18:33:18

mtllib smallpanel.mtl

#
# object Box002
#

v  164.4659 0.0000 -69.0271
v  210.9270 0.0000 -69.0271
v  210.9270 0.0000 -66.5645
v  164.4659 0.0000 -66.5645
v  210.9270 11.1296 -66.5645
v  210.9270 11.1296 -69.0271
v  164.4659 11.1296 -69.0271
v  164.4659 11.1296 -66.5645
v  162.7294 1.8786 -66.5645
v  162.7307 1.7757 -66.5645
v  162.7347 1.6757 -66.5645
v  162.7508 1.4843 -66.5645
v  162.7414 1.5786 -66.5645
v  162.7629 1.3930 -66.5645
v  162.7776 1.3046 -66.5645
v  162.8151 1.1364 -66.5645
v  162.7950 1.2191 -66.5645
v  162.8633 0.9799 -66.5645
v  162.8915 0.9060 -66.5645
v  162.9223 0.8349 -66.5645
v  163.5668 0.1754 -66.5645
v  162.9558 0.7668 -66.5645
v  162.9920 0.7016 -66.5645
v  163.0308 0.6392 -66.5645
v  163.0724 0.5798 -66.5645
v  163.1166 0.5233 -66.5645
v  163.1635 0.4697 -66.5645
v  163.2131 0.4189 -66.5645
v  163.2654 0.3711 -66.5645
v  163.3203 0.3261 -66.5645
v  163.3779 0.2841 -66.5645
v  163.4382 0.2450 -66.5645
v  163.5013 0.2087 -66.5645
v  163.6352 0.1450 -66.5645
v  162.8380 1.0567 -66.5645
v  163.7062 0.1174 -66.5645
v  163.7799 0.0928 -66.5645
v  163.8563 0.0710 -66.5645
v  163.9353 0.0522 -66.5645
v  164.0170 0.0362 -66.5645
v  164.1015 0.0232 -66.5645
v  164.1886 0.0130 -66.5645
v  164.2784 0.0058 -66.5645
v  164.3708 0.0014 -66.5645
v  211.0221 0.0014 -66.5645
v  211.1146 0.0058 -66.5645
v  211.2043 0.0130 -66.5645
v  211.2914 0.0232 -66.5645
v  211.3759 0.0362 -66.5645
v  211.4576 0.0522 -66.5645
v  211.5367 0.0710 -66.5645
v  211.6130 0.0928 -66.5645
v  211.6867 0.1174 -66.5645
v  211.7578 0.1450 -66.5645
v  211.8261 0.1754 -66.5645
v  211.8917 0.2087 -66.5645
v  211.9547 0.2450 -66.5645
v  212.0150 0.2841 -66.5645
v  212.0726 0.3261 -66.5645
v  212.1798 0.4189 -66.5645
v  212.1276 0.3711 -66.5645
v  212.2294 0.4697 -66.5645
v  211.4576 11.0775 -66.5645
v  212.2763 0.5233 -66.5645
v  212.3205 0.5798 -66.5645
v  212.3622 0.6392 -66.5645
v  212.4371 0.7668 -66.5645
v  212.4009 0.7016 -66.5645
v  212.4706 0.8349 -66.5645
v  212.5014 0.9060 -66.5645
v  212.5550 1.0567 -66.5645
v  212.5296 0.9799 -66.5645
v  212.6622 1.7757 -66.5645
v  212.5779 1.1364 -66.5645
v  212.5979 1.2191 -66.5645
v  212.6301 1.3930 -66.5645
v  212.6153 1.3046 -66.5645
v  212.6422 1.4843 -66.5645
v  212.6516 1.5786 -66.5645
v  212.6582 1.6757 -66.5645
v  212.6636 1.8786 -66.5645
v  212.6636 9.2510 -66.5645
v  212.6582 9.4540 -66.5645
v  212.6622 9.3540 -66.5645
v  212.6516 9.5511 -66.5645
v  212.6422 9.6453 -66.5645
v  212.6153 9.8251 -66.5645
v  212.6301 9.7366 -66.5645
v  212.4009 10.4281 -66.5645
v  212.5979 9.9106 -66.5645
v  212.5779 9.9932 -66.5645
v  212.5296 10.1498 -66.5645
v  212.5550 10.0729 -66.5645
v  212.5014 10.2237 -66.5645
v  212.4706 10.2947 -66.5645
v  212.4371 10.3628 -66.5645
v  212.3622 10.4904 -66.5645
v  212.3205 10.5498 -66.5645
v  212.2294 10.6600 -66.5645
v  212.2763 10.6064 -66.5645
v  212.1798 10.7107 -66.5645
v  212.1276 10.7586 -66.5645
v  212.0150 10.8455 -66.5645
v  212.0726 10.8035 -66.5645
v  211.9547 10.8847 -66.5645
v  211.8917 10.9209 -66.5645
v  211.7578 10.9847 -66.5645
v  211.8261 10.9543 -66.5645
v  211.6867 11.0122 -66.5645
v  211.6130 11.0369 -66.5645
v  211.5367 11.0586 -66.5645
v  211.3759 11.0934 -66.5645
v  211.2914 11.1065 -66.5645
v  211.1146 11.1238 -66.5645
v  211.2043 11.1166 -66.5645
v  211.0221 11.1282 -66.5645
v  162.7508 9.6453 -66.5645
v  164.3708 11.1282 -66.5645
v  164.2784 11.1238 -66.5645
v  164.1015 11.1065 -66.5645
v  164.1886 11.1166 -66.5645
v  164.0170 11.0934 -66.5645
v  163.9353 11.0775 -66.5645
v  163.7799 11.0369 -66.5645
v  163.8563 11.0586 -66.5645
v  163.2654 10.7586 -66.5645
v  163.7062 11.0122 -66.5645
v  163.6352 10.9847 -66.5645
v  163.5013 10.9209 -66.5645
v  163.5668 10.9543 -66.5645
v  163.4382 10.8847 -66.5645
v  163.3779 10.8455 -66.5645
v  163.3203 10.8035 -66.5645
v  163.2131 10.7107 -66.5645
v  163.1635 10.6600 -66.5645
v  163.0724 10.5498 -66.5645
v  163.1166 10.6064 -66.5645
v  163.0308 10.4904 -66.5645
v  162.9920 10.4281 -66.5645
v  162.9223 10.2947 -66.5645
v  162.9558 10.3628 -66.5645
v  162.8915 10.2237 -66.5645
v  162.8633 10.1498 -66.5645
v  162.8151 9.9932 -66.5645
v  162.8380 10.0729 -66.5645
v  162.7950 9.9106 -66.5645
v  162.7776 9.8251 -66.5645
v  162.7629 9.7366 -66.5645
v  162.7414 9.5511 -66.5645
v  162.7347 9.4540 -66.5645
v  162.7307 9.3540 -66.5645
v  162.7294 9.2510 -66.5645
v  212.6636 9.2510 -69.0271
v  212.6636 1.8786 -69.0271
v  212.6622 1.7757 -69.0271
v  212.6582 1.6757 -69.0271
v  212.6516 1.5786 -69.0271
v  212.6422 1.4843 -69.0271
v  212.6301 1.3930 -69.0271
v  212.6153 1.3046 -69.0271
v  212.5979 1.2191 -69.0271
v  212.5779 1.1364 -69.0271
v  212.5550 1.0567 -69.0271
v  212.5296 0.9799 -69.0271
v  212.5014 0.9060 -69.0271
v  212.4706 0.8349 -69.0271
v  212.4371 0.7668 -69.0271
v  212.4009 0.7016 -69.0271
v  212.3622 0.6392 -69.0271
v  212.3205 0.5798 -69.0271
v  212.2763 0.5233 -69.0271
v  212.2294 0.4697 -69.0271
v  212.1798 0.4189 -69.0271
v  212.1276 0.3711 -69.0271
v  212.0726 0.3261 -69.0271
v  212.0150 0.2841 -69.0271
v  211.9547 0.2450 -69.0271
v  211.8917 0.2087 -69.0271
v  211.8261 0.1754 -69.0271
v  211.7578 0.1450 -69.0271
v  211.6867 0.1174 -69.0271
v  211.6130 0.0928 -69.0271
v  211.5367 0.0710 -69.0271
v  211.4576 0.0522 -69.0271
v  211.3759 0.0362 -69.0271
v  211.2914 0.0232 -69.0271
v  211.2043 0.0130 -69.0271
v  211.1146 0.0058 -69.0271
v  211.0221 0.0014 -69.0271
v  164.3708 0.0014 -69.0271
v  164.2784 0.0058 -69.0271
v  164.1886 0.0130 -69.0271
v  164.1015 0.0232 -69.0271
v  164.0170 0.0362 -69.0271
v  163.9353 0.0522 -69.0271
v  163.8563 0.0710 -69.0271
v  163.7799 0.0928 -69.0271
v  163.7062 0.1174 -69.0271
v  163.6352 0.1450 -69.0271
v  163.5668 0.1754 -69.0271
v  163.5013 0.2087 -69.0271
v  163.4382 0.2450 -69.0271
v  163.3779 0.2841 -69.0271
v  163.3203 0.3261 -69.0271
v  163.2654 0.3711 -69.0271
v  163.2131 0.4189 -69.0271
v  163.1635 0.4697 -69.0271
v  163.1166 0.5233 -69.0271
v  163.0724 0.5798 -69.0271
v  163.0308 0.6392 -69.0271
v  162.9920 0.7016 -69.0271
v  162.9558 0.7668 -69.0271
v  162.8915 0.9060 -69.0271
v  162.9223 0.8349 -69.0271
v  162.8633 0.9799 -69.0271
v  162.8380 1.0567 -69.0271
v  162.7950 1.2191 -69.0271
v  162.8151 1.1364 -69.0271
v  162.7294 9.2510 -69.0271
v  162.7776 1.3046 -69.0271
v  162.7629 1.3930 -69.0271
v  162.7414 1.5786 -69.0271
v  162.7508 1.4843 -69.0271
v  162.7347 1.6757 -69.0271
v  162.7307 1.7757 -69.0271
v  162.7294 1.8786 -69.0271
v  162.7307 9.3540 -69.0271
v  162.7347 9.4540 -69.0271
v  162.7508 9.6453 -69.0271
v  162.7414 9.5511 -69.0271
v  162.7629 9.7366 -69.0271
v  162.7776 9.8251 -69.0271
v  162.8151 9.9932 -69.0271
v  162.7950 9.9106 -69.0271
v  163.0724 10.5498 -69.0271
v  162.8380 10.0729 -69.0271
v  162.8633 10.1498 -69.0271
v  162.9223 10.2947 -69.0271
v  162.8915 10.2237 -69.0271
v  162.9558 10.3628 -69.0271
v  162.9920 10.4281 -69.0271
v  163.0308 10.4904 -69.0271
v  164.3708 11.1282 -69.0271
v  163.1166 10.6064 -69.0271
v  163.1635 10.6600 -69.0271
v  163.2654 10.7586 -69.0271
v  163.2131 10.7107 -69.0271
v  163.3203 10.8035 -69.0271
v  163.3779 10.8455 -69.0271
v  163.5013 10.9209 -69.0271
v  163.4382 10.8847 -69.0271
v  164.1015 11.1065 -69.0271
v  163.5668 10.9543 -69.0271
v  163.6352 10.9847 -69.0271
v  163.7799 11.0369 -69.0271
v  163.7062 11.0122 -69.0271
v  163.8563 11.0586 -69.0271
v  163.9353 11.0775 -69.0271
v  164.0170 11.0934 -69.0271
v  164.1886 11.1166 -69.0271
v  164.2784 11.1238 -69.0271
v  211.0221 11.1282 -69.0271
v  211.1146 11.1238 -69.0271
v  212.2294 10.6600 -69.0271
v  211.2043 11.1166 -69.0271
v  211.2914 11.1065 -69.0271
v  211.4576 11.0775 -69.0271
v  211.3759 11.0934 -69.0271
v  211.5367 11.0586 -69.0271
v  211.6130 11.0369 -69.0271
v  211.7578 10.9847 -69.0271
v  211.6867 11.0122 -69.0271
v  211.8261 10.9543 -69.0271
v  211.8917 10.9209 -69.0271
v  212.0150 10.8455 -69.0271
v  211.9547 10.8847 -69.0271
v  212.0726 10.8035 -69.0271
v  212.1276 10.7586 -69.0271
v  212.1798 10.7107 -69.0271
v  212.2763 10.6064 -69.0271
v  212.3205 10.5498 -69.0271
v  212.4009 10.4281 -69.0271
v  212.3622 10.4904 -69.0271
v  212.5296 10.1498 -69.0271
v  212.4371 10.3628 -69.0271
v  212.4706 10.2947 -69.0271
v  212.5014 10.2237 -69.0271
v  212.5550 10.0729 -69.0271
v  212.5779 9.9932 -69.0271
v  212.5979 9.9106 -69.0271
v  212.6153 9.8251 -69.0271
v  212.6422 9.6453 -69.0271
v  212.6301 9.7366 -69.0271
v  212.6582 9.4540 -69.0271
v  212.6516 9.5511 -69.0271
v  212.6622 9.3540 -69.0271
# 296 vertices

vn -0.0070 -1.0000 -0.0000
vn 0.0070 -1.0000 -0.0000
vn 0.0070 1.0000 -0.0000
vn -0.0070 1.0000 -0.0000
vn 0.0000 0.0000 1.0000
vn 1.0000 0.0070 -0.0000
vn 1.0000 -0.0070 -0.0000
vn 0.0000 0.0000 -1.0000
vn -1.0000 -0.0070 -0.0000
vn -1.0000 0.0070 -0.0000
vn -0.0288 -0.9996 -0.0000
vn 0.0288 -0.9996 -0.0000
vn 0.0288 0.9996 -0.0000
vn -0.0288 0.9996 -0.0000
vn -0.0589 -0.9983 -0.0000
vn -0.0908 -0.9959 -0.0000
vn -0.1243 -0.9922 -0.0000
vn -0.1595 -0.9872 -0.0000
vn -0.1964 -0.9805 -0.0000
vn -0.2349 -0.9720 -0.0000
vn -0.2750 -0.9615 -0.0000
vn -0.3165 -0.9486 -0.0000
vn -0.3592 -0.9333 -0.0000
vn -0.4029 -0.9152 -0.0000
vn -0.4474 -0.8943 -0.0000
vn -0.4922 -0.8705 -0.0000
vn -0.5370 -0.8436 -0.0000
vn -0.5813 -0.8137 -0.0000
vn -0.6248 -0.7808 -0.0000
vn -0.6668 -0.7452 -0.0000
vn -0.7071 -0.7071 -0.0000
vn -0.7452 -0.6668 -0.0000
vn -0.7808 -0.6248 -0.0000
vn -0.8137 -0.5813 -0.0000
vn -0.8436 -0.5370 -0.0000
vn -0.8705 -0.4922 -0.0000
vn -0.8943 -0.4474 -0.0000
vn -0.9152 -0.4029 -0.0000
vn -0.9333 -0.3592 -0.0000
vn -0.9486 -0.3165 -0.0000
vn -0.9615 -0.2750 -0.0000
vn -0.9720 -0.2349 -0.0000
vn -0.9805 -0.1964 -0.0000
vn -0.9872 -0.1595 -0.0000
vn -0.9922 -0.1243 -0.0000
vn -0.9959 -0.0908 -0.0000
vn -0.9983 -0.0589 -0.0000
vn -0.9996 -0.0288 -0.0000
vn 0.0589 -0.9983 -0.0000
vn 0.0908 -0.9959 -0.0000
vn 0.1243 -0.9922 -0.0000
vn 0.1595 -0.9872 -0.0000
vn 0.1964 -0.9805 -0.0000
vn 0.2349 -0.9720 -0.0000
vn 0.2750 -0.9615 -0.0000
vn 0.3165 -0.9486 -0.0000
vn 0.3592 -0.9333 -0.0000
vn 0.4029 -0.9152 -0.0000
vn 0.4474 -0.8943 -0.0000
vn 0.4922 -0.8705 -0.0000
vn 0.5370 -0.8436 -0.0000
vn 0.5813 -0.8137 -0.0000
vn 0.6248 -0.7808 -0.0000
vn 0.6668 -0.7452 -0.0000
vn 0.7071 -0.7071 -0.0000
vn 0.7452 -0.6668 -0.0000
vn 0.7808 -0.6248 -0.0000
vn 0.8137 -0.5813 -0.0000
vn 0.8436 -0.5370 -0.0000
vn 0.8705 -0.4922 -0.0000
vn 0.8943 -0.4474 -0.0000
vn 0.9152 -0.4029 -0.0000
vn 0.9333 -0.3592 -0.0000
vn 0.9486 -0.3165 -0.0000
vn 0.9615 -0.2750 -0.0000
vn 0.9720 -0.2349 -0.0000
vn 0.9805 -0.1964 -0.0000
vn 0.9872 -0.1595 -0.0000
vn 0.9922 -0.1243 -0.0000
vn 0.9959 -0.0908 -0.0000
vn 0.9983 -0.0589 -0.0000
vn 0.9996 -0.0288 -0.0000
vn 0.0589 0.9983 -0.0000
vn 0.0908 0.9959 -0.0000
vn 0.1243 0.9922 -0.0000
vn 0.1595 0.9872 -0.0000
vn 0.1964 0.9805 -0.0000
vn 0.2349 0.9720 -0.0000
vn 0.2750 0.9615 -0.0000
vn 0.3165 0.9486 -0.0000
vn 0.3592 0.9333 -0.0000
vn 0.4030 0.9152 -0.0000
vn 0.4474 0.8943 -0.0000
vn 0.4922 0.8705 -0.0000
vn 0.5370 0.8436 -0.0000
vn 0.5813 0.8137 -0.0000
vn 0.6248 0.7808 -0.0000
vn 0.6668 0.7452 -0.0000
vn 0.7071 0.7071 -0.0000
vn 0.7452 0.6668 -0.0000
vn 0.7808 0.6248 -0.0000
vn 0.8137 0.5813 -0.0000
vn 0.8436 0.5370 -0.0000
vn 0.8705 0.4922 -0.0000
vn 0.8943 0.4474 -0.0000
vn 0.9152 0.4029 -0.0000
vn 0.9333 0.3592 -0.0000
vn 0.9486 0.3165 -0.0000
vn 0.9615 0.2750 -0.0000
vn 0.9720 0.2349 -0.0000
vn 0.9805 0.1964 -0.0000
vn 0.9872 0.1595 -0.0000
vn 0.9922 0.1243 -0.0000
vn 0.9959 0.0908 -0.0000
vn 0.9983 0.0589 -0.0000
vn 0.9996 0.0288 -0.0000
vn -0.0589 0.9983 -0.0000
vn -0.0908 0.9959 -0.0000
vn -0.1243 0.9922 -0.0000
vn -0.1595 0.9872 -0.0000
vn -0.1964 0.9805 -0.0000
vn -0.2349 0.9720 -0.0000
vn -0.2750 0.9615 -0.0000
vn -0.3165 0.9486 -0.0000
vn -0.3592 0.9333 -0.0000
vn -0.4030 0.9152 -0.0000
vn -0.4474 0.8943 -0.0000
vn -0.4922 0.8705 -0.0000
vn -0.5370 0.8436 -0.0000
vn -0.5813 0.8137 -0.0000
vn -0.6248 0.7808 -0.0000
vn -0.6668 0.7452 -0.0000
vn -0.7071 0.7071 -0.0000
vn -0.7452 0.6668 -0.0000
vn -0.7808 0.6248 -0.0000
vn -0.8137 0.5813 -0.0000
vn -0.8436 0.5370 -0.0000
vn -0.8705 0.4922 -0.0000
vn -0.8943 0.4474 -0.0000
vn -0.9152 0.4029 -0.0000
vn -0.9333 0.3592 -0.0000
vn -0.9486 0.3165 -0.0000
vn -0.9615 0.2750 -0.0000
vn -0.9720 0.2349 -0.0000
vn -0.9805 0.1964 -0.0000
vn -0.9872 0.1595 -0.0000
vn -0.9922 0.1243 -0.0000
vn -0.9959 0.0908 -0.0000
vn -0.9983 0.0589 -0.0000
vn -0.9996 0.0288 -0.0000
# 150 vertex normals

o Box002
g Box002
usemtl box_wire_143225087
s 1
f 1//1 2//2 3//2 4//1 
f 5//3 6//3 7//4 8//4 
s 2
f 9//5 10//5 11//5 12//5 
f 11//5 13//5 12//5 
f 12//5 14//5 15//5 16//5 
f 15//5 17//5 16//5 
f 9//5 12//5 16//5 5//5 
f 18//5 19//5 20//5 21//5 
f 20//5 22//5 23//5 24//5 
f 20//5 24//5 25//5 26//5 
f 20//5 26//5 27//5 28//5 
f 28//5 29//5 30//5 20//5 
f 30//5 31//5 32//5 21//5 
f 32//5 33//5 21//5 
f 20//5 30//5 21//5 
f 18//5 21//5 34//5 35//5 
f 35//5 34//5 36//5 16//5 
f 36//5 37//5 38//5 39//5 
f 36//5 39//5 40//5 41//5 
f 36//5 41//5 42//5 43//5 
f 36//5 43//5 44//5 45//5 
f 44//5 4//5 3//5 45//5 
f 36//5 45//5 46//5 47//5 
f 36//5 47//5 48//5 49//5 
f 16//5 36//5 49//5 50//5 
f 16//5 50//5 51//5 52//5 
f 16//5 52//5 53//5 54//5 
f 16//5 54//5 55//5 56//5 
f 57//5 58//5 59//5 60//5 
f 59//5 61//5 60//5 
f 56//5 57//5 60//5 62//5 
f 16//5 56//5 62//5 63//5 
f 64//5 65//5 66//5 67//5 
f 66//5 68//5 67//5 
f 67//5 69//5 70//5 71//5 
f 70//5 72//5 71//5 
f 64//5 67//5 71//5 73//5 
f 71//5 74//5 75//5 76//5 
f 75//5 77//5 76//5 
f 76//5 78//5 79//5 73//5 
f 79//5 80//5 73//5 
f 71//5 76//5 73//5 
f 73//5 81//5 82//5 83//5 
f 82//5 84//5 83//5 
f 83//5 85//5 86//5 87//5 
f 86//5 88//5 87//5 
f 73//5 83//5 87//5 89//5 
f 87//5 90//5 91//5 92//5 
f 91//5 93//5 92//5 
f 92//5 94//5 95//5 89//5 
f 95//5 96//5 89//5 
f 87//5 92//5 89//5 
f 64//5 73//5 89//5 63//5 
f 89//5 97//5 98//5 99//5 
f 98//5 100//5 99//5 
f 99//5 101//5 102//5 103//5 
f 102//5 104//5 103//5 
f 89//5 99//5 103//5 63//5 
f 103//5 105//5 106//5 107//5 
f 106//5 108//5 107//5 
f 107//5 109//5 110//5 63//5 
f 110//5 111//5 63//5 
f 103//5 107//5 63//5 
f 62//5 64//5 63//5 
f 63//5 112//5 113//5 114//5 
f 113//5 115//5 114//5 
f 114//5 116//5 5//5 63//5 
f 16//5 63//5 5//5 
f 9//5 5//5 8//5 117//5 
f 8//5 118//5 119//5 120//5 
f 119//5 121//5 120//5 
f 120//5 122//5 123//5 124//5 
f 123//5 125//5 124//5 
f 8//5 120//5 124//5 126//5 
f 124//5 127//5 128//5 129//5 
f 128//5 130//5 129//5 
f 129//5 131//5 132//5 126//5 
f 132//5 133//5 126//5 
f 124//5 129//5 126//5 
f 126//5 134//5 135//5 136//5 
f 135//5 137//5 136//5 
f 136//5 138//5 139//5 140//5 
f 139//5 141//5 140//5 
f 126//5 136//5 140//5 117//5 
f 140//5 142//5 143//5 144//5 
f 143//5 145//5 144//5 
f 144//5 146//5 147//5 117//5 
f 147//5 148//5 117//5 
f 140//5 144//5 117//5 
f 8//5 126//5 117//5 
f 117//5 149//5 150//5 9//5 
f 9//5 150//5 151//5 152//5 
s 1
f 153//6 82//6 81//7 154//7 
s 2
f 154//8 155//8 156//8 157//8 
f 154//8 157//8 158//8 159//8 
f 154//8 159//8 160//8 161//8 
f 154//8 161//8 162//8 163//8 
f 154//8 163//8 164//8 165//8 
f 154//8 165//8 166//8 167//8 
f 154//8 167//8 168//8 169//8 
f 154//8 169//8 170//8 171//8 
f 154//8 171//8 172//8 173//8 
f 154//8 173//8 174//8 175//8 
f 154//8 175//8 176//8 177//8 
f 154//8 177//8 178//8 179//8 
f 154//8 179//8 180//8 181//8 
f 154//8 181//8 182//8 183//8 
f 154//8 183//8 184//8 185//8 
f 154//8 185//8 186//8 187//8 
f 154//8 187//8 188//8 2//8 
f 188//8 189//8 2//8 
f 2//8 1//8 190//8 191//8 
f 2//8 191//8 192//8 193//8 
f 2//8 193//8 194//8 195//8 
f 2//8 195//8 196//8 197//8 
f 2//8 197//8 198//8 199//8 
f 2//8 199//8 200//8 201//8 
f 2//8 201//8 202//8 203//8 
f 2//8 203//8 204//8 205//8 
f 2//8 205//8 206//8 207//8 
f 2//8 207//8 208//8 209//8 
f 154//8 2//8 209//8 210//8 
f 210//8 211//8 212//8 213//8 
f 212//8 214//8 213//8 
f 213//8 215//8 216//8 217//8 
f 216//8 218//8 217//8 
f 210//8 213//8 217//8 219//8 
f 217//8 220//8 221//8 222//8 
f 221//8 223//8 222//8 
f 222//8 224//8 225//8 219//8 
f 225//8 226//8 219//8 
f 217//8 222//8 219//8 
f 219//8 227//8 228//8 229//8 
f 228//8 230//8 229//8 
f 229//8 231//8 232//8 233//8 
f 232//8 234//8 233//8 
f 219//8 229//8 233//8 235//8 
f 233//8 236//8 237//8 238//8 
f 237//8 239//8 238//8 
f 238//8 240//8 241//8 235//8 
f 241//8 242//8 235//8 
f 233//8 238//8 235//8 
f 210//8 219//8 235//8 243//8 
f 235//8 244//8 245//8 246//8 
f 245//8 247//8 246//8 
f 246//8 248//8 249//8 250//8 
f 249//8 251//8 250//8 
f 235//8 246//8 250//8 252//8 
f 250//8 253//8 254//8 255//8 
f 254//8 256//8 255//8 
f 255//8 257//8 258//8 252//8 
f 258//8 259//8 252//8 
f 250//8 255//8 252//8 
f 252//8 260//8 261//8 243//8 
f 235//8 252//8 243//8 
f 6//8 262//8 263//8 264//8 
f 263//8 265//8 266//8 267//8 
f 266//8 268//8 267//8 
f 267//8 269//8 270//8 271//8 
f 270//8 272//8 271//8 
f 263//8 267//8 271//8 264//8 
f 271//8 273//8 274//8 275//8 
f 274//8 276//8 275//8 
f 275//8 277//8 278//8 264//8 
f 278//8 279//8 264//8 
f 271//8 275//8 264//8 
f 7//8 6//8 264//8 243//8 
f 210//8 243//8 264//8 154//8 
f 264//8 280//8 281//8 282//8 
f 281//8 283//8 282//8 
f 154//8 264//8 282//8 284//8 
f 282//8 285//8 286//8 284//8 
f 286//8 287//8 284//8 
f 284//8 288//8 289//8 154//8 
f 289//8 290//8 291//8 292//8 
f 291//8 293//8 292//8 
f 154//8 289//8 292//8 294//8 
f 292//8 295//8 294//8 
f 154//8 294//8 296//8 153//8 
s 1
f 226//9 9//9 152//10 219//10 
f 190//11 1//1 4//1 44//11 
f 3//2 2//2 189//12 45//12 
f 5//3 116//13 262//13 6//3 
f 243//14 118//14 8//4 7//4 
f 43//15 191//15 190//11 44//11 
f 42//16 192//16 191//15 43//15 
f 41//17 193//17 192//16 42//16 
f 40//18 194//18 193//17 41//17 
f 39//19 195//19 194//18 40//18 
f 38//20 196//20 195//19 39//19 
f 37//21 197//21 196//20 38//20 
f 197//21 37//21 36//22 198//22 
f 198//22 36//22 34//23 199//23 
f 199//23 34//23 21//24 200//24 
f 33//25 201//25 200//24 21//24 
f 201//25 33//25 32//26 202//26 
f 202//26 32//26 31//27 203//27 
f 203//27 31//27 30//28 204//28 
f 204//28 30//28 29//29 205//29 
f 205//29 29//29 28//30 206//30 
f 206//30 28//30 27//31 207//31 
f 207//31 27//31 26//32 208//32 
f 25//33 209//33 208//32 26//32 
f 210//34 209//33 25//33 24//34 
f 23//35 211//35 210//34 24//34 
f 22//36 212//36 211//35 23//35 
f 20//37 214//37 212//36 22//36 
f 19//38 213//38 214//37 20//37 
f 18//39 215//39 213//38 19//38 
f 18//39 35//40 216//40 215//39 
f 35//40 16//41 218//41 216//40 
f 16//41 17//42 217//42 218//41 
f 17//42 15//43 220//43 217//42 
f 220//43 15//43 14//44 221//44 
f 221//44 14//44 12//45 223//45 
f 223//45 12//45 13//46 222//46 
f 222//46 13//46 11//47 224//47 
f 224//47 11//47 10//48 225//48 
f 225//48 10//48 9//9 226//9 
f 188//49 46//49 45//12 189//12 
f 187//50 47//50 46//49 188//49 
f 186//51 48//51 47//50 187//50 
f 185//52 49//52 48//51 186//51 
f 185//52 184//53 50//53 49//52 
f 184//53 183//54 51//54 50//53 
f 183//54 182//55 52//55 51//54 
f 182//55 181//56 53//56 52//55 
f 181//56 180//57 54//57 53//56 
f 180//57 179//58 55//58 54//57 
f 179//58 178//59 56//59 55//58 
f 57//60 56//59 178//59 177//60 
f 176//61 58//61 57//60 177//60 
f 175//62 59//62 58//61 176//61 
f 174//63 61//63 59//62 175//62 
f 174//63 173//64 60//64 61//63 
f 172//65 62//65 60//64 173//64 
f 64//66 62//65 172//65 171//66 
f 65//67 64//66 171//66 170//67 
f 169//68 66//68 65//67 170//67 
f 168//69 68//69 66//68 169//68 
f 167//70 67//70 68//69 168//69 
f 166//71 69//71 67//70 167//70 
f 165//72 70//72 69//71 166//71 
f 164//73 72//73 70//72 165//72 
f 163//74 71//74 72//73 164//73 
f 162//75 74//75 71//74 163//74 
f 161//76 75//76 74//75 162//75 
f 160//77 77//77 75//76 161//76 
f 159//78 76//78 77//77 160//77 
f 158//79 78//79 76//78 159//78 
f 157//80 79//80 78//79 158//79 
f 156//81 80//81 79//80 157//80 
f 155//82 73//82 80//81 156//81 
f 154//7 81//7 73//82 155//82 
f 263//83 262//13 116//13 114//83 
f 265//84 263//83 114//83 115//84 
f 266//85 265//84 115//84 113//85 
f 268//86 266//85 113//85 112//86 
f 267//87 268//86 112//86 63//87 
f 269//88 267//87 63//87 111//88 
f 270//89 269//88 111//88 110//89 
f 272//90 270//89 110//89 109//90 
f 271//91 272//90 109//90 107//91 
f 273//92 271//91 107//91 108//92 
f 274//93 273//92 108//92 106//93 
f 276//94 274//93 106//93 105//94 
f 275//95 276//94 105//94 103//95 
f 277//96 275//95 103//95 104//96 
f 278//97 277//96 104//96 102//97 
f 278//97 102//97 101//98 279//98 
f 99//99 264//99 279//98 101//98 
f 100//100 280//100 264//99 99//99 
f 98//101 281//101 280//100 100//100 
f 283//102 281//101 98//101 97//102 
f 283//102 97//102 89//103 282//103 
f 282//103 89//103 96//104 285//104 
f 285//104 96//104 95//105 286//105 
f 286//105 95//105 94//106 287//106 
f 287//106 94//106 92//107 284//107 
f 284//107 92//107 93//108 288//108 
f 288//108 93//108 91//109 289//109 
f 289//109 91//109 90//110 290//110 
f 290//110 90//110 87//111 291//111 
f 291//111 87//111 88//112 293//112 
f 293//112 88//112 86//113 292//113 
f 292//113 86//113 85//114 295//114 
f 83//115 294//115 295//114 85//114 
f 84//116 296//116 294//115 83//115 
f 153//6 296//116 84//116 82//6 
f 119//117 118//14 243//14 261//117 
f 121//118 119//117 261//117 260//118 
f 120//119 121//118 260//118 252//119 
f 122//120 120//119 252//119 259//120 
f 123//121 122//120 259//120 258//121 
f 125//122 123//121 258//121 257//122 
f 124//123 125//122 257//122 255//123 
f 127//124 124//123 255//123 256//124 
f 128//125 127//124 256//124 254//125 
f 130//126 128//125 254//125 253//126 
f 129//127 130//126 253//126 250//127 
f 131//128 129//127 250//127 251//128 
f 132//129 131//128 251//128 249//129 
f 133//130 132//129 249//129 248//130 
f 126//131 133//130 248//130 246//131 
f 126//131 246//131 247//132 134//132 
f 245//133 135//133 134//132 247//132 
f 244//134 137//134 135//133 245//133 
f 235//135 136//135 137//134 244//134 
f 138//136 136//135 235//135 242//136 
f 138//136 242//136 241//137 139//137 
f 139//137 241//137 240//138 141//138 
f 141//138 240//138 238//139 140//139 
f 140//139 238//139 239//140 142//140 
f 142//140 239//140 237//141 143//141 
f 143//141 237//141 236//142 145//142 
f 145//142 236//142 233//143 144//143 
f 144//143 233//143 234//144 146//144 
f 146//144 234//144 232//145 147//145 
f 147//145 232//145 231//146 148//146 
f 148//146 231//146 229//147 117//147 
f 117//147 229//147 230//148 149//148 
f 228//149 150//149 149//148 230//148 
f 227//150 151//150 150//149 228//149 
f 219//10 152//10 151//150 227//150 
# 264 polygons - 60 triangles

